<svg version="1.1" id="Layer_1" xmlns="http://www.w3.org/2000/svg" xmlns:xlink="http://www.w3.org/1999/xlink" x="0px" y="0px"
	 width="100%" viewBox="0 0 548 548" enable-background="new 0 0 548 548" xml:space="preserve">
<path fill="none" opacity="0" stroke="none" 
	d="
M362.000000,549.000000 
	C241.360718,549.000000 121.221443,549.000000 1.041084,549.000000 
	C1.041084,366.402374 1.041084,183.804718 1.041084,1.103536 
	C183.555954,1.103536 366.112000,1.103536 548.833984,1.103536 
	C548.833984,183.666550 548.833984,366.333252 548.833984,549.000000 
	C486.804657,549.000000 424.652313,549.000000 362.000000,549.000000 
M289.128387,418.472534 
	C294.576874,425.307434 302.373322,427.624115 310.369598,427.508514 
	C323.442352,427.319519 336.726288,416.149628 338.232178,403.932434 
	C338.578094,401.126282 340.157959,399.800537 343.337402,399.912750 
	C350.482574,400.164886 357.650269,399.808716 364.792114,400.104431 
	C366.875000,400.190704 369.362244,401.142731 370.881622,402.545502 
	C384.515961,415.133087 401.815674,414.969818 413.992065,401.350220 
	C421.279785,393.198730 422.744019,383.442291 419.143799,373.010773 
	C415.715118,363.076202 408.981354,356.942230 398.382568,354.224854 
	C398.479095,350.590790 399.395355,346.745331 396.526581,343.947479 
	C402.420624,340.116760 408.407471,341.101959 414.608551,343.256165 
	C419.376801,344.912659 424.078552,345.821564 428.124023,349.738373 
	C432.893677,354.356323 439.398956,353.823669 444.172089,350.204926 
	C447.931122,347.355011 449.975342,341.325714 448.733978,336.749664 
	C447.373962,331.735992 441.989166,326.775085 436.459747,327.606750 
	C425.510864,329.253632 417.404358,322.156952 406.981781,320.237183 
	C413.124115,316.716064 418.369476,313.611938 423.708038,310.677399 
	C428.622955,307.975677 433.404053,305.231323 439.549225,305.749329 
	C441.929596,305.949951 444.957336,304.149780 446.936768,302.405884 
	C453.973328,296.206604 452.686768,287.826782 451.304901,280.057587 
	C449.873718,272.011108 445.328491,269.330261 437.123657,268.918060 
	C432.551300,268.688385 427.962311,267.730652 423.505585,266.606476 
	C420.200256,265.772705 414.715057,253.881592 415.785156,250.664246 
	C415.925446,250.242416 416.354279,249.807907 416.762024,249.600052 
	C422.454956,246.697723 427.939392,243.142395 433.941772,241.162216 
	C439.533295,239.317581 445.607056,234.106262 445.974731,228.602264 
	C446.322845,223.390854 441.625153,216.848434 436.442322,215.326599 
	C430.389130,213.549179 423.291779,215.750839 421.249237,221.571747 
	C418.995178,227.995529 413.715698,229.815506 408.218536,233.249481 
	C404.519592,226.892258 400.915283,220.697754 397.061096,214.073700 
	C399.053589,213.022537 400.628235,212.171051 402.220978,211.354935 
	C413.268280,205.694138 419.074341,196.830536 419.013153,184.249847 
	C418.945099,170.251770 419.026978,156.252991 418.966888,142.254837 
	C418.958466,140.294632 418.797302,138.248535 418.223145,136.391769 
	C415.219330,126.678238 407.913910,122.036629 395.760590,122.028839 
	C362.097839,122.007271 328.435120,122.026649 294.772369,122.005638 
	C288.545074,122.001755 288.047852,121.481728 288.000610,115.643723 
	C287.918213,105.458969 284.728424,100.780205 274.373871,99.493805 
	C260.820953,97.810059 253.218887,100.822914 251.343857,112.180878 
	C250.655121,116.352814 248.756714,117.165436 245.541260,117.952209 
	C237.008621,120.040031 228.143677,121.392319 220.095154,124.701393 
	C205.132629,130.853073 190.656265,138.187256 175.709671,145.153992 
	C164.800461,130.792053 149.751526,132.937057 141.466339,140.197052 
	C136.949585,144.154953 134.564163,149.564682 134.069855,155.568527 
	C133.291809,165.018768 138.722931,171.380051 145.684830,176.725128 
	C144.869186,178.016754 144.432907,178.921494 143.807068,179.667114 
	C130.695160,195.289047 121.264069,212.926117 115.798454,232.526245 
	C112.958611,242.710175 111.167450,253.186127 108.887939,263.526947 
	C108.251068,266.416046 107.796661,268.813507 103.730202,269.494202 
	C98.553543,270.360748 94.317886,273.982880 93.897820,279.470947 
	C93.426979,285.622131 93.671783,291.990143 94.775436,298.050751 
	C95.733810,303.313538 100.120064,305.684937 105.524025,306.066620 
	C106.970383,306.168823 109.244568,306.912842 109.619972,307.925323 
	C113.929184,319.547485 117.945076,331.278381 122.097755,343.147980 
	C121.238602,343.770966 120.266533,344.761017 119.087250,345.281769 
	C113.905334,347.569885 110.739853,353.319366 103.999069,353.149109 
	C97.462532,352.984039 93.295822,357.534698 92.341156,364.483002 
	C91.760956,368.705780 96.367279,375.613220 100.988724,377.450470 
	C105.399200,379.203827 113.773872,376.575836 115.832802,371.981293 
	C117.905495,367.356018 121.590317,364.886047 125.434372,362.299835 
	C131.454453,358.249634 131.603409,358.147736 135.143921,364.514832 
	C135.973907,366.007446 135.526871,368.337067 135.318069,370.243378 
	C135.123642,372.018585 134.192459,373.721497 134.053101,375.492981 
	C133.132492,387.195709 138.477661,395.210419 148.958633,399.950714 
	C151.905045,401.283325 152.739441,403.205780 153.188629,406.421936 
	C154.014099,412.332275 153.857178,417.751526 151.538788,423.403229 
	C149.541946,428.271088 151.901794,434.269806 155.647247,436.784912 
	C160.231110,439.862976 165.974411,439.794434 170.644379,436.605927 
	C174.699722,433.837097 176.491241,428.761505 175.022247,423.453003 
	C173.732224,418.791229 172.182205,414.201416 170.937683,408.946136 
	C172.903778,407.227844 174.869873,405.509583 177.225571,404.379608 
	C189.096573,410.522766 200.608841,417.555511 212.950241,422.532166 
	C223.119690,426.633026 234.209549,428.586975 245.017914,430.902313 
	C249.450195,431.851807 251.646118,433.747437 251.989639,438.119293 
	C252.392258,443.243195 255.599411,446.480865 260.108612,447.781219 
	C267.215546,449.830780 274.516815,450.189026 281.416321,446.707245 
	C282.943726,445.936493 284.562317,444.688507 285.356781,443.233246 
	C289.578339,435.500488 289.230896,427.544586 285.866699,418.930511 
	C285.963501,416.205536 287.237427,416.689819 289.128387,418.472534 
M98.183525,390.449097 
	C92.936699,393.104797 90.013977,397.289398 90.682007,403.241791 
	C91.516098,410.673859 97.890129,415.310181 104.754776,413.866791 
	C111.445213,412.460022 116.443497,405.011169 114.734314,398.823822 
	C113.135475,393.035889 107.534737,387.485352 98.183525,390.449097 
z"/>
<path fill="#042032" opacity="1.000000" stroke="none" 
	d="
M398.611603,354.905151 
	C408.981354,356.942230 415.715118,363.076202 419.143799,373.010773 
	C422.744019,383.442291 421.279785,393.198730 413.992065,401.350220 
	C401.815674,414.969818 384.515961,415.133087 370.881622,402.545502 
	C369.362244,401.142731 366.875000,400.190704 364.792114,400.104431 
	C357.650269,399.808716 350.482574,400.164886 343.337402,399.912750 
	C340.157959,399.800537 338.578094,401.126282 338.232178,403.932434 
	C336.726288,416.149628 323.442352,427.319519 310.369598,427.508514 
	C302.373322,427.624115 294.576874,425.307434 288.877472,417.850159 
	C283.690948,410.611267 281.422729,403.184692 281.946045,394.709259 
	C282.035248,394.481110 282.002075,393.992218 282.183716,393.678101 
	C284.511719,388.889954 286.658112,384.415894 289.059113,379.715942 
	C297.201172,371.056885 306.575317,367.289764 318.140045,370.191010 
	C319.142090,370.442383 320.679169,370.584778 321.296234,370.030396 
	C326.796326,365.088989 332.145294,359.979370 337.883545,354.595825 
	C332.365173,350.425812 327.201996,346.524170 321.893097,342.341034 
	C319.831238,340.481506 318.059174,338.654236 315.939178,337.428864 
	C314.851288,336.800049 312.919159,336.754883 311.750000,337.285889 
	C304.107178,340.756927 296.568787,344.457916 288.670410,348.053528 
	C287.760101,348.285034 287.175659,348.546753 286.270203,348.782532 
	C285.321289,348.884491 284.693359,349.012390 283.698425,349.101562 
	C281.395355,349.742004 279.459381,350.421204 277.474976,351.401306 
	C277.480621,351.898010 277.534637,352.093872 277.418640,352.628571 
	C277.293915,355.622009 277.339233,358.276581 277.314941,361.274414 
	C277.273224,362.082001 277.301147,362.546356 277.254333,363.253845 
	C277.223694,363.660767 277.267700,363.824524 277.246887,364.448608 
	C277.233459,368.955048 277.284912,373.001160 277.236084,377.501648 
	C277.181244,383.628662 277.226746,389.301300 277.194061,395.437378 
	C277.110840,400.343445 276.970886,404.792297 277.176636,409.225128 
	C277.245087,410.700745 277.834564,412.486511 278.824615,413.516327 
	C280.968170,415.745941 283.524414,417.578857 285.911865,419.574005 
	C289.230896,427.544586 289.578339,435.500488 285.356781,443.233246 
	C284.562317,444.688507 282.943726,445.936493 281.416321,446.707245 
	C274.516815,450.189026 267.215546,449.830780 260.108612,447.781219 
	C255.599411,446.480865 252.392258,443.243195 251.989639,438.119293 
	C251.646118,433.747437 249.450195,431.851807 245.017914,430.902313 
	C234.209549,428.586975 223.119690,426.633026 212.950241,422.532166 
	C200.608841,417.555511 189.096573,410.522766 176.916290,403.819458 
	C175.988998,402.302307 175.370972,401.345306 175.100998,400.237183 
	C178.155945,395.729645 180.862854,391.373199 183.696548,386.812714 
	C185.993393,388.065887 187.960938,389.139404 190.126190,390.480682 
	C211.133774,403.740662 233.704880,411.427704 258.676910,413.930695 
	C258.676910,410.201569 258.676910,407.105194 258.735870,403.561340 
	C258.783112,400.404694 258.771393,397.695587 258.863098,394.616119 
	C258.937744,393.479553 258.908997,392.713287 258.764954,391.549805 
	C258.698639,386.450653 258.747589,381.748718 258.827515,376.581726 
	C258.828094,372.078949 258.797638,368.041260 258.859802,363.546875 
	C258.937073,360.257629 258.755768,357.413666 258.949463,354.595490 
	C259.179443,351.248871 258.148590,349.838562 254.500443,349.893707 
	C249.025284,349.976562 243.535934,349.514832 238.060989,349.156952 
	C206.064087,347.065308 176.595230,336.605286 148.396744,321.974152 
	C143.208038,319.281952 138.043518,316.543121 132.867828,313.825836 
	C132.303482,314.327545 131.739151,314.829285 131.174805,315.330994 
	C137.538971,327.694794 143.928375,340.045746 150.251114,352.430725 
	C152.026306,355.907928 154.581848,356.709015 158.309662,355.199554 
	C158.944275,355.226318 159.308350,355.209167 159.952362,355.409271 
	C161.152481,355.751984 162.072693,355.877441 163.304520,356.164093 
	C165.374298,357.047424 167.132462,357.769531 169.088882,358.737793 
	C174.022293,362.772247 177.894028,367.075348 179.161148,373.334290 
	C181.170731,383.260742 176.960663,390.615540 169.524597,397.025940 
	C169.675583,401.281586 170.211304,405.430695 170.747025,409.579803 
	C172.182205,414.201416 173.732224,418.791229 175.022247,423.453003 
	C176.491241,428.761505 174.699722,433.837097 170.644379,436.605927 
	C165.974411,439.794434 160.231110,439.862976 155.647247,436.784912 
	C151.901794,434.269806 149.541946,428.271088 151.538788,423.403229 
	C153.857178,417.751526 154.014099,412.332275 153.188629,406.421936 
	C152.739441,403.205780 151.905045,401.283325 148.958633,399.950714 
	C138.477661,395.210419 133.132492,387.195709 134.053101,375.492981 
	C134.192459,373.721497 135.123642,372.018585 135.318069,370.243378 
	C135.526871,368.337067 135.973907,366.007446 135.143921,364.514832 
	C131.603409,358.147736 131.454453,358.249634 125.434372,362.299835 
	C121.590317,364.886047 117.905495,367.356018 115.832802,371.981293 
	C113.773872,376.575836 105.399200,379.203827 100.988724,377.450470 
	C96.367279,375.613220 91.760956,368.705780 92.341156,364.483002 
	C93.295822,357.534698 97.462532,352.984039 103.999069,353.149109 
	C110.739853,353.319366 113.905334,347.569885 119.087250,345.281769 
	C120.266533,344.761017 121.238602,343.770966 122.097755,343.147980 
	C117.945076,331.278381 113.929184,319.547485 109.619972,307.925323 
	C109.244568,306.912842 106.970383,306.168823 105.524025,306.066620 
	C100.120064,305.684937 95.733810,303.313538 94.775436,298.050751 
	C93.671783,291.990143 93.426979,285.622131 93.897820,279.470947 
	C94.317886,273.982880 98.553543,270.360748 103.730202,269.494202 
	C107.796661,268.813507 108.251068,266.416046 108.887939,263.526947 
	C111.167450,253.186127 112.958611,242.710175 115.798454,232.526245 
	C121.264069,212.926117 130.695160,195.289047 143.807068,179.667114 
	C144.432907,178.921494 144.869186,178.016754 145.684830,176.725128 
	C138.722931,171.380051 133.291809,165.018768 134.069855,155.568527 
	C134.564163,149.564682 136.949585,144.154953 141.466339,140.197052 
	C149.751526,132.937057 164.800461,130.792053 175.709671,145.153992 
	C190.656265,138.187256 205.132629,130.853073 220.095154,124.701393 
	C228.143677,121.392319 237.008621,120.040031 245.541260,117.952209 
	C248.756714,117.165436 250.655121,116.352814 251.343857,112.180878 
	C253.218887,100.822914 260.820953,97.810059 274.373871,99.493805 
	C284.728424,100.780205 287.918213,105.458969 288.000610,115.643723 
	C288.047852,121.481728 288.545074,122.001755 294.772369,122.005638 
	C328.435120,122.026649 362.097839,122.007271 395.760590,122.028839 
	C407.913910,122.036629 415.219330,126.678238 418.223145,136.391769 
	C418.797302,138.248535 418.958466,140.294632 418.966888,142.254837 
	C419.026978,156.252991 418.945099,170.251770 419.013153,184.249847 
	C419.074341,196.830536 413.268280,205.694138 402.220978,211.354935 
	C400.628235,212.171051 399.053589,213.022537 397.061096,214.073700 
	C400.915283,220.697754 404.519592,226.892258 408.218536,233.249481 
	C413.715698,229.815506 418.995178,227.995529 421.249237,221.571747 
	C423.291779,215.750839 430.389130,213.549179 436.442322,215.326599 
	C441.625153,216.848434 446.322845,223.390854 445.974731,228.602264 
	C445.607056,234.106262 439.533295,239.317581 433.941772,241.162216 
	C427.939392,243.142395 422.454956,246.697723 416.762024,249.600052 
	C416.354279,249.807907 415.925446,250.242416 415.785156,250.664246 
	C414.715057,253.881592 420.200256,265.772705 423.505585,266.606476 
	C427.962311,267.730652 432.551300,268.688385 437.123657,268.918060 
	C445.328491,269.330261 449.873718,272.011108 451.304901,280.057587 
	C452.686768,287.826782 453.973328,296.206604 446.936768,302.405884 
	C444.957336,304.149780 441.929596,305.949951 439.549225,305.749329 
	C433.404053,305.231323 428.622955,307.975677 423.708038,310.677399 
	C418.369476,313.611938 413.124115,316.716064 406.981781,320.237183 
	C417.404358,322.156952 425.510864,329.253632 436.459747,327.606750 
	C441.989166,326.775085 447.373962,331.735992 448.733978,336.749664 
	C449.975342,341.325714 447.931122,347.355011 444.172089,350.204926 
	C439.398956,353.823669 432.893677,354.356323 428.124023,349.738373 
	C424.078552,345.821564 419.376801,344.912659 414.608551,343.256165 
	C408.407471,341.101959 402.420624,340.116760 395.838470,344.077667 
	C394.075256,344.763367 393.000183,345.318848 391.554382,345.903503 
	C371.893341,355.585846 351.260162,363.160248 336.117035,380.925781 
	C340.112854,380.925781 343.074036,380.925781 346.497864,380.985291 
	C348.604523,381.068146 350.250519,381.154419 351.892120,381.102448 
	C355.966217,380.973541 360.743225,382.008606 363.877563,380.208069 
	C366.187805,378.880951 366.351562,373.817322 367.712158,370.185913 
	C373.338196,360.834747 381.218628,355.689484 392.286499,354.963440 
	C394.679199,354.959015 396.645416,354.932068 398.611603,354.905151 
M258.308655,210.899200 
	C258.308655,210.899200 258.132935,210.935898 258.288330,210.483658 
	C258.288330,210.483658 258.131744,210.031815 258.328430,209.106827 
	C258.240906,196.744431 258.153412,184.382019 258.202301,172.127762 
	C258.202301,172.127762 258.328064,172.007401 258.563538,171.784195 
	C258.677002,171.425537 258.584015,171.145996 258.292389,170.308380 
	C258.226532,169.890320 258.160645,169.472244 258.460571,168.332565 
	C258.366028,164.219879 258.271454,160.107178 258.302795,155.086304 
	C258.244019,151.727829 258.185211,148.369370 258.358521,144.108414 
	C258.288483,140.979446 258.218475,137.850464 258.362091,134.757004 
	C258.362091,134.757004 258.317383,134.501862 258.317383,134.501862 
	C258.317383,134.501862 258.105377,134.635986 257.341705,134.321701 
	C253.753754,134.892380 250.130707,135.299606 246.583771,136.061310 
	C228.856293,139.868256 211.966858,145.856277 195.884186,155.753952 
	C189.880798,160.111526 183.877411,164.469101 177.273438,169.126175 
	C144.995087,198.436539 128.538284,235.011566 126.243675,279.101929 
	C127.898727,278.367279 128.660538,278.096466 129.358154,277.709778 
	C154.918243,263.541534 181.141891,250.965637 209.714737,243.952667 
	C210.869431,243.669266 212.009232,242.692841 212.819687,241.750168 
	C216.069702,237.970047 219.187042,234.075836 222.917328,229.891205 
	C225.963364,227.336685 229.009399,224.782166 232.743256,222.022781 
	C240.827225,218.703552 248.911179,215.384323 257.647797,212.048691 
	C257.833984,211.936050 258.020203,211.823410 258.455627,211.698456 
	C258.650665,211.456711 258.627899,211.244064 258.308655,210.899200 
M313.755219,173.330795 
	C313.160004,173.184616 312.564789,173.038452 311.701721,172.760376 
	C311.701721,172.760376 311.411377,172.830124 310.903656,172.395447 
	C310.263763,172.253738 309.623901,172.112045 308.677734,171.825882 
	C308.677734,171.825882 308.340454,171.856079 307.722809,171.384842 
	C306.454987,171.181793 305.187134,170.978760 303.690735,170.657272 
	C303.690735,170.657272 303.490234,170.818787 302.869354,170.314301 
	C300.251770,169.861298 297.634155,169.408295 294.999603,168.999954 
	C294.999603,168.999954 295.031586,168.964691 294.402527,168.502365 
	C288.782501,167.860275 283.162506,167.218185 277.098206,166.525330 
	C277.098206,174.467361 277.098206,181.222519 277.048462,188.499435 
	C277.080353,188.671204 277.112213,188.842957 277.001251,189.940506 
	C277.001251,197.194626 277.001251,204.448761 277.001251,211.832733 
	C280.800262,212.236130 283.918274,212.567215 287.701141,213.240341 
	C297.723267,215.796265 307.001770,219.916092 315.089813,226.808868 
	C318.396332,223.700241 321.158081,220.543030 324.461853,218.127167 
	C329.609558,214.363022 331.848053,210.070511 328.995575,203.121140 
	C329.977600,198.405426 330.959625,193.689728 332.492615,188.619781 
	C333.580231,186.843567 334.667847,185.067368 336.360748,182.302658 
	C329.622162,179.635712 323.536316,177.227066 316.888916,174.345276 
	C315.951691,174.168762 315.014435,173.992249 314.019806,173.955368 
	C314.019806,173.955368 314.114136,173.837509 313.755219,173.330795 
M404.096985,298.660095 
	C410.960266,295.484741 417.823517,292.309357 424.686798,289.134003 
	C424.581940,288.649658 424.477081,288.165344 424.372223,287.681000 
	C417.270416,284.493286 410.168610,281.305542 402.759766,277.378754 
	C402.502045,276.252533 402.214081,275.132294 401.991180,273.999207 
	C399.411194,260.883392 395.106781,248.417816 387.923004,236.466171 
	C387.647125,236.261780 387.371216,236.057388 387.183899,235.820938 
	C387.183899,235.820938 387.206696,235.729553 387.135498,235.029266 
	C384.113800,230.367538 381.092102,225.705811 377.859985,220.719452 
	C367.439728,229.300156 356.902557,231.704086 345.085388,226.424957 
	C344.028839,225.952957 341.885071,226.799149 340.803558,227.701263 
	C337.106110,230.785324 333.764526,234.295303 330.074951,237.389786 
	C327.758820,239.332336 327.987701,240.816422 329.444580,243.268494 
	C332.148529,247.819473 334.797699,252.527985 336.509277,257.501404 
	C337.727661,261.041595 339.412964,262.879669 343.365540,263.589539 
	C343.904449,263.732330 344.443390,263.875092 345.473450,264.488220 
	C346.983704,265.019226 348.493958,265.550232 350.269775,266.191315 
	C350.269775,266.191315 350.541687,266.097961 350.935760,266.533905 
	C351.291626,266.681732 351.647491,266.829559 352.489838,267.473694 
	C355.789734,269.055969 359.238403,270.390198 362.363434,272.264099 
	C374.890808,279.776001 387.317871,287.455200 400.141418,295.613586 
	C401.323273,296.431946 402.505127,297.250305 404.096985,298.660095 
M150.444733,302.527466 
	C153.084259,303.893402 155.703491,305.300354 158.366684,306.618500 
	C173.028824,313.875366 187.847198,320.734894 204.524231,324.738586 
	C209.314621,325.831451 214.105011,326.924347 218.895401,328.017242 
	C204.033386,309.226562 199.713409,288.159302 203.821030,264.568634 
	C179.980118,271.748749 158.476654,282.171906 136.934479,295.133575 
	C141.881897,297.745697 145.930588,299.883301 150.444733,302.527466 
M334.286591,328.657806 
	C340.046600,333.131378 345.718719,337.727173 351.636749,341.980896 
	C352.902466,342.890717 355.424347,343.317566 356.749573,342.680786 
	C367.928009,337.309540 378.962799,331.639343 390.765808,326.010040 
	C395.143799,323.999084 399.521790,321.988159 403.288055,320.258179 
	C400.273956,318.377930 396.947968,316.451813 393.777527,314.296844 
	C384.991547,308.325012 376.515717,301.854340 367.452759,296.344971 
	C358.872711,291.129150 349.703613,286.882294 340.191650,281.893616 
	C339.414490,297.411743 335.487427,310.737579 326.568329,322.776093 
	C329.161804,324.645355 331.550018,326.366669 334.286591,328.657806 
M229.571808,308.903259 
	C230.370300,309.969971 231.136673,311.062531 231.972015,312.099548 
	C247.869507,331.835083 274.939575,336.944763 296.251709,324.241577 
	C318.751770,310.830292 327.380737,284.607391 317.209900,260.551147 
	C307.574890,237.762238 281.975037,225.485321 257.729584,232.026184 
	C224.946716,240.870239 210.825897,278.558197 229.571808,308.903259 
M396.350616,191.699524 
	C397.234558,189.132004 398.823059,186.580490 398.881897,183.994186 
	C399.154327,172.016220 398.787537,160.022827 399.107697,148.047226 
	C399.235168,143.279694 397.868622,141.855408 393.020325,141.884445 
	C359.232819,142.086716 325.443390,142.025223 291.654938,141.927261 
	C289.092285,141.919830 286.541962,140.920380 283.967773,140.490631 
	C282.156921,140.188324 280.315308,140.070312 278.487396,139.870026 
	C278.406006,142.158356 277.567017,144.840332 278.485962,146.608902 
	C279.204956,147.992661 282.085602,148.847031 284.036011,148.904099 
	C301.045105,149.401779 317.104980,153.668991 332.428040,160.832047 
	C335.203888,162.129700 337.107422,161.859909 338.937012,159.580032 
	C342.277313,155.417572 346.583496,152.975632 351.762787,151.558044 
	C367.588867,147.226349 385.068634,161.034241 381.546967,176.369354 
	C379.624207,184.742157 384.046722,190.041931 386.208344,197.481857 
	C389.771667,195.477875 392.750183,193.802780 396.350616,191.699524 
M317.542267,403.786957 
	C318.028290,402.065735 318.842224,400.363220 318.941406,398.619965 
	C319.300262,392.315826 316.315033,389.019348 310.539246,389.002502 
	C303.822479,388.982910 300.801453,392.100647 300.983856,398.710419 
	C301.090637,402.579712 302.774567,405.456055 306.315308,406.906891 
	C310.371124,408.568817 314.017975,407.590942 317.542267,403.786957 
M383.148041,384.960968 
	C384.700714,389.620148 388.045868,392.184601 392.832397,391.736115 
	C397.084808,391.337708 400.125671,388.708344 400.927826,384.238525 
	C401.863403,379.024963 398.460266,374.472900 393.438843,374.016113 
	C387.106934,373.440094 383.385773,377.077118 383.148041,384.960968 
M356.717712,210.950912 
	C359.506714,209.410812 362.773468,208.335403 364.899109,206.150055 
	C366.105377,204.909912 365.899475,201.733582 365.369385,199.676682 
	C365.187408,198.970627 362.099823,198.893738 360.321747,198.747635 
	C357.865753,198.545868 355.305145,198.929428 352.946472,198.383392 
	C348.808350,197.425446 347.754181,199.333893 348.047150,202.852249 
	C348.448730,207.675873 352.156525,209.315201 356.717712,210.950912 
M161.589615,381.159180 
	C163.108292,377.837036 162.718567,374.577332 159.308548,373.226593 
	C157.587860,372.544952 153.829971,373.431641 153.072678,374.778473 
	C152.079605,376.544586 152.316757,380.026733 153.501602,381.763184 
	C155.487137,384.673096 158.584274,384.266205 161.589615,381.159180 
M363.967194,175.125519 
	C362.695862,170.692139 359.776764,168.686111 355.319611,170.010452 
	C351.609131,171.112930 349.971008,173.869339 350.311493,177.452454 
	C354.677246,177.662292 358.440399,177.939133 362.202728,177.928207 
	C362.819702,177.926422 363.432983,176.658249 363.967194,175.125519 
M158.181229,161.965668 
	C159.000168,159.954773 160.410034,157.931396 160.367996,155.938660 
	C160.349335,155.053040 157.227173,153.347626 155.831604,153.623352 
	C154.414108,153.903442 152.497162,156.093414 152.377502,157.574539 
	C152.133423,160.595901 154.163635,162.316330 158.181229,161.965668 
z"/>
<path fill="#042032" opacity="1.000000" stroke="none" 
	d="
M98.538017,390.308411 
	C107.534737,387.485352 113.135475,393.035889 114.734314,398.823822 
	C116.443497,405.011169 111.445213,412.460022 104.754776,413.866791 
	C97.890129,415.310181 91.516098,410.673859 90.682007,403.241791 
	C90.013977,397.289398 92.936699,393.104797 98.538017,390.308411 
z"/>
<path fill="#A2225A" opacity="1.000000" stroke="none" 
	d="
M285.889282,419.252258 
	C283.524414,417.578857 280.968170,415.745941 278.824615,413.516327 
	C277.834564,412.486511 277.245087,410.700745 277.176636,409.225128 
	C276.970886,404.792297 277.110840,400.343445 277.575134,395.428558 
	C279.308502,394.949982 280.582642,394.943695 281.856812,394.937408 
	C281.422729,403.184692 283.690948,410.611267 288.696045,417.547485 
	C287.237427,416.689819 285.963501,416.205536 285.889282,419.252258 
z"/>
<path fill="#C1D3DE" opacity="1.000000" stroke="none" 
	d="
M170.842346,409.262970 
	C170.211304,405.430695 169.675583,401.281586 169.785370,397.234863 
	C171.871567,398.354279 173.312271,399.371277 174.752960,400.388275 
	C175.370972,401.345306 175.988998,402.302307 176.721497,403.525330 
	C174.869873,405.509583 172.903778,407.227844 170.842346,409.262970 
z"/>
<path fill="#C1D3DE" opacity="1.000000" stroke="none" 
	d="
M398.497070,354.565002 
	C396.645416,354.932068 394.679199,354.959015 392.324280,354.605286 
	C393.168701,352.405975 394.401855,350.587341 395.745636,348.605530 
	C394.254700,347.539703 393.089905,346.707031 391.925110,345.874329 
	C393.000183,345.318848 394.075256,344.763367 395.457581,344.140076 
	C399.395355,346.745331 398.479095,350.590790 398.497070,354.565002 
z"/>
<path fill="#F7F9FA" opacity="1.000000" stroke="none" 
	d="
M229.358459,308.610229 
	C210.825897,278.558197 224.946716,240.870239 257.729584,232.026184 
	C281.975037,225.485321 307.574890,237.762238 317.209900,260.551147 
	C327.380737,284.607391 318.751770,310.830292 296.251709,324.241577 
	C274.939575,336.944763 247.869507,331.835083 231.972015,312.099548 
	C231.136673,311.062531 230.370300,309.969971 229.358459,308.610229 
M292.538208,253.906616 
	C278.410828,243.873642 257.814941,244.783905 248.506149,255.852692 
	C258.748383,255.629395 264.408386,258.928711 265.912354,265.999023 
	C267.142181,271.780609 264.093384,277.442444 258.514648,279.737183 
	C251.398636,282.664276 246.007248,279.856476 239.340530,269.751434 
	C236.219757,275.902710 235.926193,284.594269 238.573242,292.467377 
	C243.154785,306.094238 255.607025,315.146667 270.367584,315.580933 
	C284.870148,316.007629 298.409332,306.981415 303.475983,293.508453 
	C308.902679,279.078064 305.083679,264.633362 292.538208,253.906616 
z"/>
<path fill="#7EB307" opacity="1.000000" stroke="none" 
	d="
M232.055435,222.227661 
	C229.009399,224.782166 225.963364,227.336685 222.265579,229.975555 
	C220.174316,228.977814 218.513107,228.092499 217.341553,226.772583 
	C214.917755,224.041794 213.155807,223.734161 209.931381,226.278061 
	C205.854248,229.494720 200.992920,231.849518 196.218781,234.025177 
	C183.236694,239.941284 170.100601,245.518539 157.074707,251.340103 
	C153.540970,252.919418 150.181763,254.889206 145.913254,257.111481 
	C146.375381,254.268097 146.641022,252.360794 146.999222,250.471024 
	C151.736969,225.476151 161.488449,202.926666 179.840851,184.805130 
	C183.504303,181.187790 184.536728,178.552689 180.549927,174.645966 
	C179.125214,173.249878 178.735916,170.797119 177.874023,168.826660 
	C183.877411,164.469101 189.880798,160.111526 196.467468,155.990845 
	C198.329926,158.324844 199.396103,160.605408 200.977905,162.441864 
	C201.772980,163.364944 203.505295,163.480774 205.046036,163.878113 
	C205.575699,163.634155 205.802094,163.403946 206.146988,163.025879 
	C206.336502,162.947800 206.744431,162.907410 207.221283,162.935028 
	C208.528351,162.974701 209.358566,162.993988 210.188828,162.997681 
	C217.912552,163.031998 217.724442,163.072037 218.109375,170.797836 
	C218.259293,173.807098 218.924133,177.267563 220.611908,179.620483 
	C223.771576,184.025375 222.287430,191.039246 228.569397,193.583237 
	C228.796097,193.675049 228.610260,194.556183 228.813065,194.974182 
	C230.002029,197.424606 231.184845,199.882462 232.503540,202.263702 
	C233.196747,203.515488 234.162155,204.616531 234.712402,205.981918 
	C222.738968,212.853897 222.658295,213.401413 232.055435,222.227661 
z"/>
<path fill="#6C990D" opacity="1.000000" stroke="none" 
	d="
M177.573730,168.976410 
	C178.735916,170.797119 179.125214,173.249878 180.549927,174.645966 
	C184.536728,178.552689 183.504303,181.187790 179.840851,184.805130 
	C161.488449,202.926666 151.736969,225.476151 146.999222,250.471024 
	C146.641022,252.360794 146.375381,254.268097 145.913254,257.111481 
	C150.181763,254.889206 153.540970,252.919418 157.074707,251.340103 
	C170.100601,245.518539 183.236694,239.941284 196.218781,234.025177 
	C200.992920,231.849518 205.854248,229.494720 209.931381,226.278061 
	C213.155807,223.734161 214.917755,224.041794 217.341553,226.772583 
	C218.513107,228.092499 220.174316,228.977814 221.983643,230.141876 
	C219.187042,234.075836 216.069702,237.970047 212.819687,241.750168 
	C212.009232,242.692841 210.869431,243.669266 209.714737,243.952667 
	C181.141891,250.965637 154.918243,263.541534 129.358154,277.709778 
	C128.660538,278.096466 127.898727,278.367279 126.243675,279.101929 
	C128.538284,235.011566 144.995087,198.436539 177.573730,168.976410 
z"/>
<path fill="none" opacity="0" stroke="none" 
	d="
M396.039673,191.913605 
	C392.750183,193.802780 389.771667,195.477875 386.208344,197.481857 
	C384.046722,190.041931 379.624207,184.742157 381.546967,176.369354 
	C385.068634,161.034241 367.588867,147.226349 351.762787,151.558044 
	C346.583496,152.975632 342.277313,155.417572 338.937012,159.580032 
	C337.107422,161.859909 335.203888,162.129700 332.428040,160.832047 
	C317.104980,153.668991 301.045105,149.401779 284.036011,148.904099 
	C282.085602,148.847031 279.204956,147.992661 278.485962,146.608902 
	C277.567017,144.840332 278.406006,142.158356 278.487427,139.870026 
	C280.315308,140.070312 282.156921,140.188324 283.967773,140.490631 
	C286.541962,140.920380 289.092285,141.919830 291.654938,141.927261 
	C325.443390,142.025223 359.232819,142.086716 393.020325,141.884445 
	C397.868622,141.855408 399.235168,143.279694 399.107697,148.047226 
	C398.787537,160.022827 399.154327,172.016220 398.881897,183.994186 
	C398.823059,186.580490 397.234558,189.132004 396.039673,191.913605 
z"/>
<path fill="#18AFC0" opacity="1.000000" stroke="none" 
	d="
M258.767212,364.003571 
	C258.797638,368.041260 258.828094,372.078949 258.426727,376.548431 
	C246.705139,374.528198 235.428162,372.012726 224.104553,369.728485 
	C223.045685,369.514923 221.099350,370.441223 220.583786,371.391174 
	C218.876755,374.536255 217.636246,377.934509 216.247055,381.165192 
	C223.417236,385.792084 245.230072,391.436920 258.068665,392.430511 
	C258.286469,393.486176 258.523071,394.236298 258.759705,394.986450 
	C258.771393,397.695587 258.783112,400.404694 258.418396,403.741211 
	C254.001923,403.926910 249.932999,403.663300 245.926941,403.012512 
	C229.226013,400.299713 213.484802,394.875183 198.997162,385.611694 
	C200.812820,378.923767 202.036774,372.405273 204.571686,366.444244 
	C208.349899,357.559601 211.720901,356.191833 221.601898,357.263153 
	C222.357162,357.345032 223.225601,356.383087 224.445023,355.917877 
	C235.251663,357.961395 245.662506,359.955475 256.045349,362.085968 
	C257.041840,362.290436 257.864075,363.344116 258.767212,364.003571 
z"/>
<path fill="#0D859A" opacity="1.000000" stroke="none" 
	d="
M258.859802,363.546875 
	C257.864075,363.344116 257.041840,362.290436 256.045349,362.085968 
	C245.662506,359.955475 235.251663,357.961395 224.188248,355.675720 
	C219.628311,354.023865 215.601486,352.900970 211.856140,351.169312 
	C204.518845,347.776855 203.716660,348.013763 200.618317,355.942078 
	C198.543457,355.367615 196.823807,354.803650 194.716827,354.153076 
	C183.906555,350.061981 173.483643,346.057465 162.758087,341.884216 
	C156.993561,338.439453 151.531677,335.163483 146.069778,331.887512 
	C145.735062,332.323059 145.400345,332.758575 145.065643,333.194122 
	C149.390137,340.514618 153.714645,347.835144 158.039139,355.155640 
	C154.581848,356.709015 152.026306,355.907928 150.251114,352.430725 
	C143.928375,340.045746 137.538971,327.694794 131.174805,315.330994 
	C131.739151,314.829285 132.303482,314.327545 132.867828,313.825836 
	C138.043518,316.543121 143.208038,319.281952 148.396744,321.974152 
	C176.595230,336.605286 206.064087,347.065308 238.060989,349.156952 
	C243.535934,349.514832 249.025284,349.976562 254.500443,349.893707 
	C258.148590,349.838562 259.179443,351.248871 258.949463,354.595490 
	C258.755768,357.413666 258.937073,360.257629 258.859802,363.546875 
z"/>
<path fill="#FCFDFD" opacity="1.000000" stroke="none" 
	d="
M390.040771,326.059021 
	C378.962799,331.639343 367.928009,337.309540 356.749573,342.680786 
	C355.424347,343.317566 352.902466,342.890717 351.636749,341.980896 
	C345.718719,337.727173 340.046600,333.131378 334.246704,328.044434 
	C339.384979,318.385590 344.584564,309.348663 345.369446,297.650543 
	C353.090637,301.875854 360.381256,305.355682 367.123871,309.688293 
	C375.012177,314.757172 382.422882,320.569305 390.040771,326.059021 
z"/>
<path fill="#C7D7E0" opacity="1.000000" stroke="none" 
	d="
M149.979248,302.020935 
	C145.930588,299.883301 141.881897,297.745697 136.934479,295.133575 
	C158.476654,282.171906 179.980118,271.748749 203.821030,264.568634 
	C199.713409,288.159302 204.033386,309.226562 218.895401,328.017242 
	C214.105011,326.924347 209.314621,325.831451 204.133850,324.161804 
	C196.290619,310.587433 192.995346,296.437256 192.745255,280.314240 
	C179.649551,286.523499 167.544571,292.197510 155.516525,298.030212 
	C153.499908,299.008087 151.816574,300.673309 149.979248,302.020935 
z"/>
<path fill="#FCFDFD" opacity="1.000000" stroke="none" 
	d="
M150.211990,302.274200 
	C151.816574,300.673309 153.499908,299.008087 155.516525,298.030212 
	C167.544571,292.197510 179.649551,286.523499 192.745255,280.314240 
	C192.995346,296.437256 196.290619,310.587433 203.845230,323.934875 
	C187.847198,320.734894 173.028824,313.875366 158.366684,306.618500 
	C155.703491,305.300354 153.084259,303.893402 150.211990,302.274200 
z"/>
<path fill="#C8D7E1" opacity="1.000000" stroke="none" 
	d="
M390.403290,326.034546 
	C382.422882,320.569305 375.012177,314.757172 367.123871,309.688293 
	C360.381256,305.355682 353.090637,301.875854 345.369446,297.650543 
	C344.584564,309.348663 339.384979,318.385590 334.072510,327.759521 
	C331.550018,326.366669 329.161804,324.645355 326.568329,322.776093 
	C335.487427,310.737579 339.414490,297.411743 340.191650,281.893616 
	C349.703613,286.882294 358.872711,291.129150 367.452759,296.344971 
	C376.515717,301.854340 384.991547,308.325012 393.777527,314.296844 
	C396.947968,316.451813 400.273956,318.377930 403.288055,320.258179 
	C399.521790,321.988159 395.143799,323.999084 390.403290,326.034546 
z"/>
<path fill="#B7DB5E" opacity="1.000000" stroke="none" 
	d="
M232.399353,222.125214 
	C222.658295,213.401413 222.738968,212.853897 235.028351,205.866272 
	C238.946121,204.014633 242.387161,202.692520 245.493515,200.816315 
	C246.571350,200.165298 247.185776,198.177979 247.332245,196.732147 
	C247.451752,195.552689 246.395630,194.302734 246.145554,193.028168 
	C245.371246,189.081955 243.406281,188.087296 239.765701,189.947845 
	C237.315323,191.200150 234.680954,192.092468 231.987839,193.204041 
	C231.339890,191.746628 230.970688,190.832428 230.535675,189.950714 
	C226.151123,181.063751 226.148102,181.065247 234.542419,176.067490 
	C242.633148,173.686234 250.363953,171.370209 258.094757,169.054184 
	C258.160645,169.472244 258.226532,169.890320 258.225098,170.894684 
	C258.214569,171.656448 258.271332,171.831924 258.328064,172.007401 
	C258.328064,172.007401 258.202301,172.127762 257.844910,172.373657 
	C257.364136,184.538742 257.227020,196.457886 257.161163,208.377411 
	C257.158112,208.927063 257.793640,209.480270 258.131744,210.031815 
	C258.131744,210.031815 258.288330,210.483658 257.973999,210.846710 
	C257.438171,211.494888 257.216675,211.779984 256.995148,212.065079 
	C248.911179,215.384323 240.827225,218.703552 232.399353,222.125214 
z"/>
<path fill="#1BB6C5" opacity="1.000000" stroke="none" 
	d="
M328.840485,203.962433 
	C331.848053,210.070511 329.609558,214.363022 324.461853,218.127167 
	C321.158081,220.543030 318.396332,223.700241 315.089813,226.808868 
	C307.001770,219.916092 297.723267,215.796265 287.369324,212.608536 
	C287.075378,204.621033 287.113251,197.265320 287.554962,189.930099 
	C302.422546,192.180496 315.754547,197.712448 328.840485,203.962433 
z"/>
<path fill="#F9C824" opacity="1.000000" stroke="none" 
	d="
M322.038788,342.622559 
	C327.201996,346.524170 332.365173,350.425812 337.883545,354.595825 
	C332.145294,359.979370 326.796326,365.088989 321.296234,370.030396 
	C320.679169,370.584778 319.142090,370.442383 318.140045,370.191010 
	C306.575317,367.289764 297.201172,371.056885 288.815430,379.387329 
	C288.220337,373.198242 288.123535,367.111938 288.419434,360.998413 
	C294.731781,358.873108 301.048035,357.488647 306.461853,354.480225 
	C312.107300,351.343109 316.882874,346.640625 322.038788,342.622559 
z"/>
<path fill="#B8DB68" opacity="1.000000" stroke="none" 
	d="
M206.744431,162.907410 
	C206.744431,162.907410 206.336502,162.947800 205.915558,163.104553 
	C205.202148,163.431030 204.975204,163.664490 204.813766,163.961655 
	C203.505295,163.480774 201.772980,163.364944 200.977905,162.441864 
	C199.396103,160.605408 198.329926,158.324844 196.808228,155.927979 
	C211.966858,145.856277 228.856293,139.868256 246.583771,136.061310 
	C250.130707,135.299606 253.753754,134.892380 257.688782,134.520844 
	C258.035828,134.719971 258.148438,134.721497 258.148438,134.721497 
	C258.218475,137.850464 258.288483,140.979446 257.814270,144.562225 
	C255.003006,145.340622 252.644424,145.370529 250.485184,146.041702 
	C241.941330,148.697617 233.459915,151.554398 224.594650,154.313278 
	C218.404099,157.162369 212.574265,160.034882 206.744431,162.907410 
z"/>
<path fill="#0B8B9D" opacity="1.000000" stroke="none" 
	d="
M198.992004,386.030548 
	C213.484802,394.875183 229.226013,400.299713 245.926941,403.012512 
	C249.932999,403.663300 254.001923,403.926910 258.359436,404.188721 
	C258.676910,407.105194 258.676910,410.201569 258.676910,413.930695 
	C233.704880,411.427704 211.133774,403.740662 190.144897,390.073608 
	C189.307266,387.457031 188.759674,385.468079 187.959473,383.586487 
	C187.121872,381.616974 186.041580,379.750671 185.406097,377.925537 
	C190.160553,380.684753 194.576279,383.357635 198.992004,386.030548 
z"/>
<path fill="#10879C" opacity="1.000000" stroke="none" 
	d="
M342.982605,263.176056 
	C339.412964,262.879669 337.727661,261.041595 336.509277,257.501404 
	C334.797699,252.527985 332.148529,247.819473 329.444580,243.268494 
	C327.987701,240.816422 327.758820,239.332336 330.074951,237.389786 
	C333.764526,234.295303 337.106110,230.785324 340.803558,227.701263 
	C341.885071,226.799149 344.028839,225.952957 345.085388,226.424957 
	C356.902557,231.704086 367.439728,229.300156 377.859985,220.719452 
	C381.092102,225.705811 384.113800,230.367538 386.820648,235.489044 
	C385.174561,235.637680 383.786194,235.471161 382.528320,234.974319 
	C381.296326,234.487762 380.197205,233.664749 378.780212,232.786469 
	C377.353394,230.808228 376.436646,229.876221 373.867340,231.250763 
	C369.479065,233.598419 364.649597,235.121338 359.554352,236.980164 
	C355.731079,236.509537 352.135895,236.622116 349.052277,235.421127 
	C346.218658,234.317505 344.384491,233.916901 342.024719,236.252884 
	C339.716827,238.537552 339.883728,240.301025 341.652008,242.689941 
	C342.483704,243.813644 342.625366,245.448135 342.925629,247.152710 
	C342.732880,248.995529 342.477325,250.571381 342.716003,252.068451 
	C342.959534,253.596024 344.534729,255.596710 344.009918,256.403259 
	C343.190582,257.662567 341.092194,258.089661 339.237030,259.018982 
	C340.244995,260.137665 341.613800,261.656860 342.982605,263.176056 
M338.509338,254.738800 
	C338.796997,254.939392 339.084656,255.139984 339.372314,255.340561 
	C339.187500,255.042313 339.002716,254.744080 338.509338,254.738800 
z"/>
<path fill="#30D2E6" opacity="1.000000" stroke="none" 
	d="
M328.918030,203.541779 
	C315.754547,197.712448 302.422546,192.180496 287.533325,189.937378 
	C287.107849,189.924164 287.065918,189.940308 287.055847,189.483643 
	C287.070587,185.050186 287.095398,181.073380 287.431213,177.060425 
	C288.149445,176.933441 288.556702,176.842575 289.383972,176.827271 
	C296.881378,178.437042 304.061920,179.611694 311.007355,181.605499 
	C318.105591,183.643158 324.973145,186.484497 331.941681,188.974014 
	C330.959625,193.689728 329.977600,198.405426 328.918030,203.541779 
z"/>
<path fill="#0B8B9D" opacity="1.000000" stroke="none" 
	d="
M343.174072,263.382812 
	C341.613800,261.656860 340.244995,260.137665 339.237030,259.018982 
	C341.092194,258.089661 343.190582,257.662567 344.009918,256.403259 
	C344.534729,255.596710 342.959534,253.596024 342.716003,252.068451 
	C342.477325,250.571381 342.732880,248.995529 343.205444,247.360641 
	C344.757721,249.380371 345.689484,251.625381 347.056946,253.562897 
	C348.045929,254.964127 349.613464,255.957016 351.171021,257.378174 
	C358.033783,260.639069 364.768768,263.418823 371.233337,266.726990 
	C379.605530,271.011383 387.762085,275.717072 396.067078,280.587524 
	C397.283112,284.456909 398.358917,288.064423 403.225281,288.401245 
	C403.330994,290.507477 403.350800,292.198334 403.015167,294.025513 
	C401.700470,294.465393 400.741241,294.768951 399.782013,295.072510 
	C387.317871,287.455200 374.890808,279.776001 362.363434,272.264099 
	C359.238403,270.390198 355.789734,269.055969 352.059570,266.999756 
	C351.266754,266.383209 350.904205,266.240601 350.541687,266.097961 
	C350.541687,266.097961 350.269775,266.191315 350.073975,265.802704 
	C348.246216,264.948700 346.614258,264.483307 344.982300,264.017883 
	C344.443390,263.875092 343.904449,263.732330 343.174072,263.382812 
z"/>
<path fill="#2ED4E7" opacity="1.000000" stroke="none" 
	d="
M258.087402,392.125000 
	C245.230072,391.436920 223.417236,385.792084 216.247055,381.165192 
	C217.636246,377.934509 218.876755,374.536255 220.583786,371.391174 
	C221.099350,370.441223 223.045685,369.514923 224.104553,369.728485 
	C235.428162,372.012726 246.705139,374.528198 258.395691,377.013519 
	C258.747589,381.748718 258.698639,386.450653 258.565979,391.590454 
	C258.482239,392.028381 258.087402,392.125000 258.087402,392.125000 
z"/>
<path fill="#A2225A" opacity="1.000000" stroke="none" 
	d="
M391.554382,345.903503 
	C393.089905,346.707031 394.254700,347.539703 395.745636,348.605530 
	C394.401855,350.587341 393.168701,352.405975 391.897766,354.582764 
	C381.218628,355.689484 373.338196,360.834747 367.464355,369.910522 
	C359.995758,373.553864 353.015472,377.239807 346.035217,380.925781 
	C343.074036,380.925781 340.112854,380.925781 336.117035,380.925781 
	C351.260162,363.160248 371.893341,355.585846 391.554382,345.903503 
z"/>
<path fill="#C99519" opacity="1.000000" stroke="none" 
	d="
M321.893097,342.341003 
	C316.882874,346.640625 312.107300,351.343109 306.461853,354.480225 
	C301.048035,357.488647 294.731781,358.873108 288.381470,360.958008 
	C287.950806,360.944763 287.874207,360.864502 287.908386,360.421387 
	C287.277435,356.141235 290.382629,350.955444 284.065460,349.140320 
	C284.693359,349.012390 285.321289,348.884491 286.604980,348.828491 
	C287.839294,348.628235 288.417786,348.356018 288.996277,348.083771 
	C296.568787,344.457916 304.107178,340.756927 311.750000,337.285889 
	C312.919159,336.754883 314.851288,336.800049 315.939178,337.428864 
	C318.059174,338.654236 319.831238,340.481506 321.893097,342.341003 
z"/>
<path fill="#0B92A7" opacity="1.000000" stroke="none" 
	d="
M332.217163,188.796906 
	C324.973145,186.484497 318.105591,183.643158 311.007355,181.605499 
	C304.061920,179.611694 296.881378,178.437042 289.390411,176.458008 
	C288.491577,173.874527 288.006317,171.735855 287.377563,168.964691 
	C290.212860,168.964691 292.622223,168.964691 295.031586,168.964691 
	C295.031586,168.964691 294.999603,168.999954 295.267700,169.250519 
	C298.187286,169.940308 300.838776,170.379547 303.490234,170.818787 
	C303.490234,170.818787 303.690735,170.657272 304.065125,171.020447 
	C305.739838,171.541107 307.040131,171.698593 308.340454,171.856079 
	C308.340454,171.856079 308.677734,171.825882 309.058472,172.150452 
	C310.096619,172.593384 310.753998,172.711761 311.411377,172.830139 
	C311.411377,172.830124 311.701721,172.760376 312.024841,173.078873 
	C312.936676,173.544083 313.525391,173.690796 314.114136,173.837509 
	C314.114136,173.837509 314.019806,173.955368 314.270203,174.188293 
	C315.497192,174.553635 316.473816,174.686050 317.450439,174.818451 
	C323.536316,177.227066 329.622162,179.635712 336.360748,182.302658 
	C334.667847,185.067368 333.580231,186.843567 332.217163,188.796906 
z"/>
<path fill="#108EA1" opacity="1.000000" stroke="none" 
	d="
M185.067383,377.839233 
	C186.041580,379.750671 187.121872,381.616974 187.959473,383.586487 
	C188.759674,385.468079 189.307266,387.457031 189.947189,389.805847 
	C187.960938,389.139404 185.993393,388.065887 183.696548,386.812714 
	C180.862854,391.373199 178.155945,395.729645 175.100998,400.237183 
	C173.312271,399.371277 171.871567,398.354279 170.170120,397.128326 
	C176.960663,390.615540 181.170731,383.260742 179.161148,373.334290 
	C177.894028,367.075348 174.022293,362.772247 169.114838,358.316589 
	C169.961288,356.099518 170.980042,354.549744 172.297211,353.154480 
	C177.991364,357.225311 183.387100,361.141602 188.830795,365.377991 
	C188.924332,366.127289 188.969894,366.556519 188.850403,367.303253 
	C187.479370,371.026886 186.273376,374.433075 185.067383,377.839233 
z"/>
<path fill="#A0CB33" opacity="1.000000" stroke="none" 
	d="
M224.955353,154.336700 
	C233.459915,151.554398 241.941330,148.697617 250.485184,146.041702 
	C252.644424,145.370529 255.003006,145.340622 257.698212,145.013458 
	C258.185211,148.369370 258.244019,151.727829 257.837341,155.599991 
	C252.423523,157.319214 247.435852,158.385818 242.538193,159.770752 
	C237.974655,161.061218 233.506897,162.690384 228.863266,163.831635 
	C227.471497,160.440781 226.213425,157.388733 224.955353,154.336700 
z"/>
<path fill="#719D0E" opacity="1.000000" stroke="none" 
	d="
M228.996964,164.170456 
	C233.506897,162.690384 237.974655,161.061218 242.538193,159.770752 
	C247.435852,158.385818 252.423523,157.319214 257.774414,156.054077 
	C258.271454,160.107178 258.366028,164.219879 258.277649,168.693375 
	C250.363953,171.370209 242.633148,173.686234 234.256088,175.844345 
	C232.072205,171.847778 230.534592,168.009125 228.996964,164.170456 
z"/>
<path fill="#1690A2" opacity="1.000000" stroke="none" 
	d="
M403.139404,287.985931 
	C398.358917,288.064423 397.283112,284.456909 396.081085,280.137695 
	C395.870178,277.863586 395.838745,276.354004 395.510284,274.912109 
	C392.138214,260.109100 387.320282,245.867004 379.039764,232.989410 
	C380.197205,233.664749 381.296326,234.487762 382.528320,234.974319 
	C383.786194,235.471161 385.174561,235.637680 386.856262,235.839172 
	C387.206696,235.729553 387.183899,235.820938 387.230743,236.079498 
	C387.540161,236.552414 387.802704,236.766754 388.065277,236.981094 
	C395.106781,248.417816 399.411194,260.883392 401.991180,273.999207 
	C402.214081,275.132294 402.502045,276.252533 402.882629,278.193542 
	C403.050110,282.000854 403.094757,284.993408 403.139404,287.985931 
z"/>
<path fill="#CE9318" opacity="1.000000" stroke="none" 
	d="
M287.988770,360.985199 
	C288.123535,367.111938 288.220337,373.198242 288.560822,379.613190 
	C286.658112,384.415894 284.511719,388.889954 281.765900,393.672241 
	C278.353821,394.205353 278.041595,392.476318 277.987396,390.225342 
	C277.881653,385.829956 277.565430,381.439667 277.336365,377.047272 
	C277.284912,373.001160 277.233459,368.955048 277.365417,364.350616 
	C277.700409,363.475067 277.627167,363.214539 277.329041,363.010681 
	C277.301147,362.546356 277.273224,362.082001 277.497833,361.008179 
	C277.959961,359.334625 278.169556,358.270508 278.379150,357.206390 
	C278.362976,362.236816 281.086212,362.699890 284.965424,361.502411 
	C285.910583,361.210663 286.903351,361.072998 287.874207,360.864502 
	C287.874207,360.864502 287.950806,360.944763 287.988770,360.985199 
z"/>
<path fill="none" opacity="0" stroke="none" 
	d="
M317.294678,404.095154 
	C314.017975,407.590942 310.371124,408.568817 306.315308,406.906891 
	C302.774567,405.456055 301.090637,402.579712 300.983856,398.710419 
	C300.801453,392.100647 303.822479,388.982910 310.539246,389.002502 
	C316.315033,389.019348 319.300262,392.315826 318.941406,398.619965 
	C318.842224,400.363220 318.028290,402.065735 317.294678,404.095154 
z"/>
<path fill="#109AAD" opacity="1.000000" stroke="none" 
	d="
M171.998779,353.000000 
	C170.980042,354.549744 169.961288,356.099518 168.916580,358.070435 
	C167.132462,357.769531 165.374298,357.047424 163.054047,355.908020 
	C161.552109,355.391144 160.612274,355.291595 159.672440,355.192017 
	C159.308350,355.209167 158.944275,355.226318 158.309662,355.199554 
	C153.714645,347.835144 149.390137,340.514618 145.065643,333.194122 
	C145.400345,332.758575 145.735062,332.323059 146.069778,331.887512 
	C151.531677,335.163483 156.993561,338.439453 162.787216,342.221161 
	C166.078918,346.151276 169.038849,349.575623 171.998779,353.000000 
z"/>
<path fill="none" opacity="0" stroke="none" 
	d="
M383.093201,384.571228 
	C383.385773,377.077118 387.106934,373.440094 393.438843,374.016113 
	C398.460266,374.472900 401.863403,379.024963 400.927826,384.238525 
	C400.125671,388.708344 397.084808,391.337708 392.832397,391.736115 
	C388.045868,392.184601 384.700714,389.620148 383.093201,384.571228 
z"/>
<path fill="#C1D3DE" opacity="1.000000" stroke="none" 
	d="
M403.225281,288.401245 
	C403.094757,284.993408 403.050110,282.000854 403.036133,278.563080 
	C410.168610,281.305542 417.270416,284.493286 424.372223,287.681000 
	C424.477081,288.165344 424.581940,288.649658 424.686798,289.134003 
	C417.823517,292.309357 410.960266,295.484741 403.954773,298.014282 
	C403.665253,296.208740 403.517944,295.048981 403.370605,293.889221 
	C403.350800,292.198334 403.330994,290.507477 403.225281,288.401245 
z"/>
<path fill="#1690A2" opacity="1.000000" stroke="none" 
	d="
M287.129517,189.916901 
	C287.113251,197.265320 287.075378,204.621033 287.036865,212.437515 
	C283.918274,212.567215 280.800262,212.236130 277.001251,211.832733 
	C277.001251,204.448761 277.001251,197.194626 277.430664,189.648865 
	C280.928680,189.551575 283.997284,189.745941 287.065918,189.940308 
	C287.065918,189.940308 287.107849,189.924164 287.129517,189.916901 
z"/>
<path fill="none" opacity="0" stroke="none" 
	d="
M356.331970,210.891785 
	C352.156525,209.315201 348.448730,207.675873 348.047150,202.852249 
	C347.754181,199.333893 348.808350,197.425446 352.946472,198.383392 
	C355.305145,198.929428 357.865753,198.545868 360.321747,198.747635 
	C362.099823,198.893738 365.187408,198.970627 365.369385,199.676682 
	C365.899475,201.733582 366.105377,204.909912 364.899109,206.150055 
	C362.773468,208.335403 359.506714,209.410812 356.331970,210.891785 
z"/>
<path fill="#CB2663" opacity="1.000000" stroke="none" 
	d="
M346.497864,380.985260 
	C353.015472,377.239807 359.995758,373.553864 367.223877,370.143250 
	C366.351562,373.817322 366.187805,378.880951 363.877563,380.208069 
	C360.743225,382.008606 355.966217,380.973541 351.892120,381.102448 
	C350.250519,381.154419 348.604523,381.068146 346.497864,380.985260 
z"/>
<path fill="#10879C" opacity="1.000000" stroke="none" 
	d="
M294.717041,168.733521 
	C292.622223,168.964691 290.212860,168.964691 287.377563,168.964691 
	C288.006317,171.735855 288.491577,173.874527 288.970398,176.382446 
	C288.556702,176.842575 288.149445,176.933441 287.010468,177.005981 
	C285.485718,176.812775 284.693176,176.635788 283.899628,176.463257 
	C278.714447,175.335983 278.098999,175.907410 277.933228,181.340164 
	C277.865509,183.559097 277.388824,185.765564 277.098206,187.977692 
	C277.098206,181.222519 277.098206,174.467361 277.098206,166.525330 
	C283.162506,167.218185 288.782501,167.860275 294.717041,168.733521 
z"/>
<path fill="#1CA2B5" opacity="1.000000" stroke="none" 
	d="
M277.073334,188.238556 
	C277.388824,185.765564 277.865509,183.559097 277.933228,181.340164 
	C278.098999,175.907410 278.714447,175.335983 283.899628,176.463257 
	C284.693176,176.635788 285.485718,176.812775 286.699463,177.042130 
	C287.095398,181.073380 287.070587,185.050186 287.055847,189.483643 
	C283.997284,189.745941 280.928680,189.551575 277.502075,189.185974 
	C277.112213,188.842957 277.080353,188.671204 277.073334,188.238556 
z"/>
<path fill="#B48321" opacity="1.000000" stroke="none" 
	d="
M287.908386,360.421387 
	C286.903351,361.072998 285.910583,361.210663 284.965424,361.502411 
	C281.086212,362.699890 278.362976,362.236816 278.379150,357.206390 
	C278.169556,358.270508 277.959961,359.334625 277.567444,360.664917 
	C277.339233,358.276581 277.293915,355.622009 277.604797,352.480774 
	C277.815125,351.696228 277.669250,351.398315 277.523376,351.100403 
	C279.459381,350.421204 281.395355,349.742004 283.698425,349.101562 
	C290.382629,350.955444 287.277435,356.141235 287.908386,360.421387 
z"/>
<path fill="#C1D3DE" opacity="1.000000" stroke="none" 
	d="
M161.362732,381.438293 
	C158.584274,384.266205 155.487137,384.673096 153.501602,381.763184 
	C152.316757,380.026733 152.079605,376.544586 153.072678,374.778473 
	C153.829971,373.431641 157.587860,372.544952 159.308548,373.226593 
	C162.718567,374.577332 163.108292,377.837036 161.362732,381.438293 
z"/>
<path fill="#C8D7E1" opacity="1.000000" stroke="none" 
	d="
M364.007568,175.550446 
	C363.432983,176.658249 362.819702,177.926422 362.202728,177.928207 
	C358.440399,177.939133 354.677246,177.662292 350.311493,177.452454 
	C349.971008,173.869339 351.609131,171.112930 355.319611,170.010452 
	C359.776764,168.686111 362.695862,170.692139 364.007568,175.550446 
z"/>
<path fill="#C8D7E1" opacity="1.000000" stroke="none" 
	d="
M157.791779,162.043945 
	C154.163635,162.316330 152.133423,160.595901 152.377502,157.574539 
	C152.497162,156.093414 154.414108,153.903442 155.831604,153.623352 
	C157.227173,153.347626 160.349335,155.053040 160.367996,155.938660 
	C160.410034,157.931396 159.000168,159.954773 157.791779,162.043945 
z"/>
<path fill="#B8DB68" opacity="1.000000" stroke="none" 
	d="
M258.230103,209.569321 
	C257.793640,209.480270 257.158112,208.927063 257.161163,208.377411 
	C257.227020,196.457886 257.364136,184.538742 257.776703,172.319580 
	C258.153412,184.382019 258.240906,196.744431 258.230103,209.569321 
z"/>
<path fill="#B48321" opacity="1.000000" stroke="none" 
	d="
M277.236084,377.501648 
	C277.565430,381.439667 277.881653,385.829956 277.987396,390.225342 
	C278.041595,392.476318 278.353821,394.205353 281.584290,393.986359 
	C282.002075,393.992218 282.035248,394.481110 281.946045,394.709259 
	C280.582642,394.943695 279.308502,394.949982 277.653259,394.965118 
	C277.226746,389.301300 277.181244,383.628662 277.236084,377.501648 
z"/>
<path fill="#1690A2" opacity="1.000000" stroke="none" 
	d="
M403.015167,294.025513 
	C403.517944,295.048981 403.665253,296.208740 403.749756,297.718567 
	C402.505127,297.250305 401.323273,296.431946 399.961731,295.343048 
	C400.741241,294.768951 401.700470,294.465393 403.015167,294.025513 
z"/>
<path fill="#10879C" opacity="1.000000" stroke="none" 
	d="
M303.179810,170.566528 
	C300.838776,170.379547 298.187286,169.940308 295.276184,169.228180 
	C297.634155,169.408295 300.251770,169.861298 303.179810,170.566528 
z"/>
<path fill="#10879C" opacity="1.000000" stroke="none" 
	d="
M345.227875,264.253052 
	C346.614258,264.483307 348.246216,264.948700 349.941193,265.747650 
	C348.493958,265.550232 346.983704,265.019226 345.227875,264.253052 
z"/>
<path fill="#10879C" opacity="1.000000" stroke="none" 
	d="
M308.031616,171.620453 
	C307.040131,171.698593 305.739838,171.541107 304.179413,171.079681 
	C305.187134,170.978760 306.454987,171.181793 308.031616,171.620453 
z"/>
<path fill="#0B8B9D" opacity="1.000000" stroke="none" 
	d="
M258.068665,392.430511 
	C258.087402,392.125000 258.482239,392.028381 258.681244,391.987732 
	C258.908997,392.713287 258.937744,393.479553 258.863068,394.616119 
	C258.523071,394.236298 258.286469,393.486176 258.068665,392.430511 
z"/>
<path fill="#0D859A" opacity="1.000000" stroke="none" 
	d="
M159.952362,355.409302 
	C160.612274,355.291595 161.552109,355.391144 162.742432,355.746796 
	C162.072693,355.877441 161.152481,355.751984 159.952362,355.409302 
z"/>
<path fill="#10879C" opacity="1.000000" stroke="none" 
	d="
M317.169678,174.581879 
	C316.473816,174.686050 315.497192,174.553635 314.298889,174.118469 
	C315.014435,173.992249 315.951691,174.168762 317.169678,174.581879 
z"/>
<path fill="#10879C" opacity="1.000000" stroke="none" 
	d="
M313.934692,173.584152 
	C313.525391,173.690796 312.936676,173.544083 312.158752,173.144836 
	C312.564789,173.038452 313.160004,173.184616 313.934692,173.584152 
z"/>
<path fill="#B48321" opacity="1.000000" stroke="none" 
	d="
M288.670410,348.053528 
	C288.417786,348.356018 287.839294,348.628235 286.925995,348.854462 
	C287.175659,348.546753 287.760101,348.285034 288.670410,348.053528 
z"/>
<path fill="#10879C" opacity="1.000000" stroke="none" 
	d="
M311.157532,172.612793 
	C310.753998,172.711761 310.096619,172.593384 309.211609,172.222687 
	C309.623901,172.112045 310.263763,172.253738 311.157532,172.612793 
z"/>
<path fill="#B48321" opacity="1.000000" stroke="none" 
	d="
M277.254333,363.253845 
	C277.627167,363.214539 277.700409,363.475067 277.430298,363.890320 
	C277.267700,363.824524 277.223694,363.660767 277.254333,363.253845 
z"/>
<path fill="#CE9318" opacity="1.000000" stroke="none" 
	d="
M277.474976,351.401306 
	C277.669250,351.398315 277.815125,351.696228 277.774811,352.141907 
	C277.534637,352.093872 277.480621,351.898010 277.474976,351.401306 
z"/>
<path fill="#10879C" opacity="1.000000" stroke="none" 
	d="
M350.738708,266.315918 
	C350.904205,266.240601 351.266754,266.383209 351.816315,266.751617 
	C351.647491,266.829559 351.291626,266.681732 350.738708,266.315918 
z"/>
<path fill="#719D0E" opacity="1.000000" stroke="none" 
	d="
M258.445801,171.895798 
	C258.271332,171.831924 258.214569,171.656448 258.221191,171.213272 
	C258.584015,171.145996 258.677002,171.425537 258.445801,171.895798 
z"/>
<path fill="#B8DB68" opacity="1.000000" stroke="none" 
	d="
M257.321472,212.056885 
	C257.216675,211.779984 257.438171,211.494888 257.896301,211.072845 
	C258.132935,210.935898 258.308655,210.899200 258.249481,211.126129 
	C258.190308,211.353073 258.206421,211.710754 258.206421,211.710754 
	C258.020203,211.823410 257.833984,211.936050 257.321472,212.056885 
z"/>
<path fill="#10879C" opacity="1.000000" stroke="none" 
	d="
M387.994141,236.723633 
	C387.802704,236.766754 387.540161,236.552414 387.186462,236.095520 
	C387.371216,236.057388 387.647125,236.261780 387.994141,236.723633 
z"/>
<path fill="#719D0E" opacity="1.000000" stroke="none" 
	d="
M258.331024,211.704605 
	C258.206421,211.710754 258.190308,211.353073 258.288849,211.206802 
	C258.627899,211.244064 258.650665,211.456711 258.331024,211.704605 
z"/>
<path fill="#719D0E" opacity="1.000000" stroke="none" 
	d="
M258.255249,134.739258 
	C258.148438,134.721497 258.035828,134.719971 258.070618,134.677979 
	C258.105377,134.635986 258.317383,134.501862 258.317383,134.501862 
	C258.317383,134.501862 258.362091,134.757004 258.255249,134.739258 
z"/>
<path fill="#052032" opacity="1.000000" stroke="none" 
	d="
M292.828369,254.120132 
	C305.083679,264.633362 308.902679,279.078064 303.475983,293.508453 
	C298.409332,306.981415 284.870148,316.007629 270.367584,315.580933 
	C255.607025,315.146667 243.154785,306.094238 238.573242,292.467377 
	C235.926193,284.594269 236.219757,275.902710 239.340530,269.751434 
	C246.007248,279.856476 251.398636,282.664276 258.514648,279.737183 
	C264.093384,277.442444 267.142181,271.780609 265.912354,265.999023 
	C264.408386,258.928711 258.748383,255.629395 248.506149,255.852692 
	C257.814941,244.783905 278.410828,243.873642 292.828369,254.120132 
z"/>
<path fill="#79AC09" opacity="1.000000" stroke="none" 
	d="
M228.863266,163.831635 
	C230.534592,168.009125 232.072205,171.847778 233.896164,175.909592 
	C226.148102,181.065247 226.151123,181.063751 230.535675,189.950714 
	C230.970688,190.832428 231.339890,191.746628 231.987839,193.204041 
	C234.680954,192.092468 237.315323,191.200150 239.765701,189.947845 
	C243.406281,188.087296 245.371246,189.081955 246.145554,193.028168 
	C246.395630,194.302734 247.451752,195.552689 247.332245,196.732147 
	C247.185776,198.177979 246.571350,200.165298 245.493515,200.816315 
	C242.387161,202.692520 238.946121,204.014633 235.320587,205.670013 
	C234.162155,204.616531 233.196747,203.515488 232.503540,202.263702 
	C231.184845,199.882462 230.002029,197.424606 228.813065,194.974182 
	C228.610260,194.556183 228.796097,193.675049 228.569397,193.583237 
	C222.287430,191.039246 223.771576,184.025375 220.611908,179.620483 
	C218.924133,177.267563 218.259293,173.807098 218.109375,170.797836 
	C217.724442,163.072037 217.912552,163.031998 210.188828,162.997681 
	C209.358566,162.993988 208.528351,162.974701 207.221283,162.935028 
	C212.574265,160.034882 218.404099,157.162369 224.594650,154.313278 
	C226.213425,157.388733 227.471497,160.440781 228.863266,163.831635 
z"/>
<path fill="#79AC09" opacity="1.000000" stroke="none" 
	d="
M205.046036,163.878113 
	C204.975204,163.664490 205.202148,163.431030 205.726044,163.182632 
	C205.802094,163.403946 205.575699,163.634155 205.046036,163.878113 
z"/>
<path fill="#1BB6C5" opacity="1.000000" stroke="none" 
	d="
M185.406097,377.925537 
	C186.273376,374.433075 187.479370,371.026886 189.170853,367.447998 
	C191.618805,368.418030 193.492737,369.779694 195.576553,370.622314 
	C196.852051,371.138092 199.366028,371.443512 199.753036,370.838562 
	C202.159744,367.076447 204.122177,363.030121 206.164261,359.204834 
	C203.976898,357.834320 202.475220,356.893433 200.973541,355.952515 
	C203.716660,348.013763 204.518845,347.776855 211.856140,351.169312 
	C215.601486,352.900970 219.628311,354.023865 223.784668,355.664124 
	C223.225601,356.383087 222.357162,357.345032 221.601898,357.263153 
	C211.720901,356.191833 208.349899,357.559601 204.571686,366.444244 
	C202.036774,372.405273 200.812820,378.923767 198.997162,385.611694 
	C194.576279,383.357635 190.160553,380.684753 185.406097,377.925537 
z"/>
<path fill="#14BCCD" opacity="1.000000" stroke="none" 
	d="
M172.297211,353.154480 
	C169.038849,349.575623 166.078918,346.151276 163.089844,342.389954 
	C173.483643,346.057465 183.906555,350.061981 194.626312,354.477814 
	C192.876373,358.278748 190.829605,361.668335 188.782837,365.057922 
	C183.387100,361.141602 177.991364,357.225311 172.297211,353.154480 
z"/>
<path fill="#2ED4E7" opacity="1.000000" stroke="none" 
	d="
M188.830811,365.377991 
	C190.829605,361.668335 192.876373,358.278748 195.013657,354.564392 
	C196.823807,354.803650 198.543457,355.367615 200.618317,355.942078 
	C202.475220,356.893433 203.976898,357.834320 206.164261,359.204834 
	C204.122177,363.030121 202.159744,367.076447 199.753036,370.838562 
	C199.366028,371.443512 196.852051,371.138092 195.576553,370.622314 
	C193.492737,369.779694 191.618805,368.418030 189.335907,367.130554 
	C188.969894,366.556519 188.924332,366.127289 188.830811,365.377991 
z"/>
<path fill="#1CB8C9" opacity="1.000000" stroke="none" 
	d="
M378.780212,232.786469 
	C387.320282,245.867004 392.138214,260.109100 395.510284,274.912109 
	C395.838745,276.354004 395.870178,277.863586 396.025513,279.791565 
	C387.762085,275.717072 379.605530,271.011383 371.233337,266.726990 
	C364.768768,263.418823 358.033783,260.639069 351.338318,257.011536 
	C351.171631,253.504684 351.140259,250.607727 350.986328,247.717285 
	C350.780457,243.850937 351.429260,240.957184 356.280151,240.557007 
	C357.610931,240.447220 358.768433,238.237030 360.005463,236.990662 
	C364.649597,235.121338 369.479065,233.598419 373.867340,231.250763 
	C376.436646,229.876221 377.353394,230.808228 378.780212,232.786469 
z"/>
<path fill="#14BCCD" opacity="1.000000" stroke="none" 
	d="
M359.554352,236.980164 
	C358.768433,238.237030 357.610931,240.447220 356.280151,240.557007 
	C351.429260,240.957184 350.780457,243.850937 350.986328,247.717285 
	C351.140259,250.607727 351.171631,253.504684 351.090271,256.765381 
	C349.613464,255.957016 348.045929,254.964127 347.056946,253.562897 
	C345.689484,251.625381 344.757721,249.380371 343.359558,247.059097 
	C342.625366,245.448135 342.483704,243.813644 341.652008,242.689941 
	C339.883728,240.301025 339.716827,238.537552 342.024719,236.252884 
	C344.384491,233.916901 346.218658,234.317505 349.052277,235.421127 
	C352.135895,236.622116 355.731079,236.509537 359.554352,236.980164 
z"/>
<path fill="#0B8B9D" opacity="1.000000" stroke="none" 
	d="
M338.663635,254.592316 
	C339.002716,254.744080 339.187500,255.042313 339.372314,255.340576 
	C339.084656,255.139984 338.796997,254.939392 338.663635,254.592316 
z"/>
</svg>